<svg width="45" height="45" viewBox="0 0 45 45" fill="none" xmlns="http://www.w3.org/2000/svg">
<path d="M44.7166 21.1712L40.6126 17.072L24.2599 0.720878C24.0311 0.492333 23.7595 0.31104 23.4605 0.187351C23.1616 0.0636621 22.8412 0 22.5176 0C22.194 0 21.8736 0.0636621 21.5747 0.187351C21.2757 0.31104 21.0041 0.492333 20.7753 0.720878L4.39797 17.0614L0.283398 21.1712C0.0968799 21.3711 -0.00466206 21.6356 0.000164508 21.9088C0.00499108 22.182 0.115809 22.4427 0.309273 22.636C0.502736 22.8292 0.763739 22.9399 1.03729 22.9447C1.31085 22.9495 1.5756 22.8481 1.77577 22.6618L4.08824 20.3521V42.5391C4.08824 43.1918 4.34782 43.8177 4.80987 44.2792C5.27193 44.7407 5.89861 45 6.55206 45H16.1645C16.8179 45 17.4446 44.7407 17.9067 44.2792C18.3687 43.8177 18.6283 43.1918 18.6283 42.5391V28.4766C18.6283 28.3834 18.6654 28.294 18.7314 28.228C18.7974 28.1621 18.8869 28.1251 18.9803 28.1251H26.0197C26.1131 28.1251 26.2026 28.1621 26.2686 28.228C26.3346 28.294 26.3717 28.3834 26.3717 28.4766V42.5391C26.3717 43.1918 26.6313 43.8177 27.0934 44.2792C27.5554 44.7407 28.1821 45 28.8355 45H38.4585C38.7821 45 39.1024 44.9363 39.4014 44.8127C39.7003 44.689 39.9719 44.5077 40.2007 44.2792C40.4295 44.0507 40.611 43.7794 40.7348 43.4808C40.8586 43.1823 40.9223 42.8622 40.9223 42.5391V20.3626L43.2242 22.6618C43.4244 22.8481 43.6891 22.9495 43.9627 22.9447C44.2363 22.9399 44.4973 22.8292 44.6907 22.636C44.8842 22.4427 44.995 22.182 44.9998 21.9088C45.0047 21.6356 44.9031 21.3711 44.7166 21.1712ZM38.8105 42.5391C38.8105 42.6323 38.7734 42.7217 38.7074 42.7877C38.6414 42.8536 38.5519 42.8906 38.4585 42.8906H28.8355C28.7422 42.8906 28.6527 42.8536 28.5867 42.7877C28.5206 42.7217 28.4836 42.6323 28.4836 42.5391V28.4766C28.4836 27.8239 28.224 27.198 27.7619 26.7365C27.2999 26.275 26.6732 26.0157 26.0197 26.0157H18.9803C18.3268 26.0157 17.7001 26.275 17.2381 26.7365C16.776 27.198 16.5164 27.8239 16.5164 28.4766V42.5391C16.5164 42.6323 16.4794 42.7217 16.4134 42.7877C16.3473 42.8536 16.2578 42.8906 16.1645 42.8906H6.55206C6.45871 42.8906 6.36918 42.8536 6.30317 42.7877C6.23716 42.7217 6.20008 42.6323 6.20008 42.5391V18.2462L22.2501 2.2115C22.316 2.14602 22.4053 2.10927 22.4982 2.10927C22.5912 2.10927 22.6804 2.14602 22.7464 2.2115L38.807 18.2532L38.8105 42.5391Z" fill="black"/>
</svg>
