<?xml version="1.0" encoding="UTF-8"?>
<svg width="114px" height="24px" viewBox="0 0 114 24" version="1.1" xmlns="http://www.w3.org/2000/svg" xmlns:xlink="http://www.w3.org/1999/xlink">
    <title>Combined shape 8851</title>
    <g id="Page-1" stroke="none" stroke-width="1" fill="none" fill-rule="evenodd">
        <g id="Artboard" transform="translate(-139.000000, -1486.000000)" fill="#171717">
            <g id="global" transform="translate(132.000000, 51.000000)">
                <path d="M51.709432,1438.36139 C55.95103,1438.36074 59.030056,1441.5183 59.030512,1445.86917 C59.031082,1450.23568 55.952968,1453.40514 51.711256,1453.4057 C49.670086,1453.40589 47.922124,1452.64828 46.694344,1451.25155 L46.6949867,1457.08176 C46.6949989,1457.19281 46.6950114,1457.30545 46.695024,1457.41967 L46.695142,1458.49053 L44.151346,1458.49091 L44.148838,1438.46997 L46.612264,1438.4697 L46.61272,1440.59034 C47.837308,1439.14545 49.61206,1438.36158 51.709432,1438.36139 Z M73.0402,1435.74599 C78.865372,1435.74527 83.140486,1439.97436 83.141284,1445.9187 C83.141968,1451.86322 78.867994,1456.1315 73.042708,1456.13224 C67.217422,1456.13296 62.904574,1451.86578 62.903776,1445.92137 C62.903092,1439.97693 67.214686,1435.74683 73.0402,1435.74599 Z M7.704748,1448.02204 C6.331732,1441.87271 10.9273,1437.24645 17.049214,1438.60401 C19.590958,1439.1677 21.597586,1441.18845 22.15801,1443.74882 C23.507656,1449.91598 18.915622,1454.54709 12.810694,1453.16483 C10.275334,1452.5908 8.274976,1450.5759 7.704748,1448.02204 Z M90.287944,1438.47738 L90.289882,1453.27962 L87.746086,1453.27991 L87.744262,1438.47774 L90.287944,1438.47738 Z M102.582274,1438.36816 C106.396942,1438.36761 108.674434,1440.7521 108.675004,1444.74618 L108.675984,1452.89388 L108.67603,1453.27725 L106.132348,1453.27761 L106.132014,1450.83423 C106.132,1450.72793 106.131985,1450.62307 106.131971,1450.51965 L106.131208,1444.93478 C106.130866,1442.19167 104.783956,1440.74176 102.235372,1440.74212 C99.361432,1440.7425 97.64596,1442.53144 97.646416,1445.52777 L97.6469653,1449.67759 C97.6469775,1449.76981 97.6469899,1449.86356 97.6470025,1449.95885 L97.647442,1453.27871 L95.103646,1453.279 L95.101708,1438.47683 L97.565134,1438.47647 L97.565476,1440.40888 C98.718472,1439.08576 100.4629,1438.36845 102.582274,1438.36816 Z M115.281304,1435.33511 L115.281646,1438.41239 L119.532706,1438.41184 L119.533048,1440.67043 L115.281988,1440.67098 C115.282004,1440.79622 115.28202,1440.91999 115.282035,1441.04231 L115.282994,1448.59116 C115.282996,1448.60863 115.282998,1448.62465 115.283,1448.63921 L115.283014,1448.74842 C115.283128,1450.23698 115.988104,1450.99154 117.37822,1450.99137 C118.1101,1450.99137 118.786006,1450.75864 119.232886,1450.35342 C119.232886,1450.35342 119.339058,1450.25708 119.551402,1450.06439 L120.514018,1452.03846 C120.39181,1452.14845 120.330706,1452.20344 120.330706,1452.20344 C119.57272,1452.88494 118.41904,1453.27598 117.165268,1453.27614 C114.35893,1453.27653 112.749136,1451.6651 112.748908,1448.85544 L112.748018,1442.46391 C112.748002,1442.35178 112.747986,1442.23817 112.74797,1442.12309 L112.747084,1435.3354 L115.281304,1435.33511 Z M33.721828,1438.36367 C37.536496,1438.36312 39.814102,1440.74762 39.814558,1444.7417 L39.8149873,1447.95406 C39.8149979,1448.03338 39.8150087,1448.11417 39.8150197,1448.19642 L39.815698,1453.27276 L37.272244,1453.27314 L37.2720461,1451.82521 C37.2720304,1451.71029 37.2720149,1451.59682 37.2719996,1451.48477 L37.271104,1444.93029 C37.270762,1442.18718 35.923852,1440.73727 33.375268,1440.73763 C30.501328,1440.73802 28.785628,1442.52695 28.78597,1445.52328 L28.7859999,1445.74921 C28.7860028,1445.77073 28.7860058,1445.79378 28.7860091,1445.81837 L28.786996,1453.27413 L26.2432,1453.27451 L26.241376,1438.47225 L28.70503,1438.47198 L28.705372,1440.4041 C29.85814,1439.08091 31.602454,1438.36396 33.721828,1438.36367 Z M14.940442,1440.68646 C12.049174,1440.68682 10.030234,1442.82047 10.03069,1445.87548 C10.031032,1448.93051 12.050428,1451.06361 14.94181,1451.06322 C17.817004,1451.06286 19.824886,1448.92924 19.82443,1445.87421 C19.824088,1442.81927 17.815636,1440.6861 14.940442,1440.68646 Z M51.57628,1440.68171 C48.685126,1440.68217 46.666414,1442.81579 46.666756,1445.87073 C46.667098,1448.92576 48.686494,1451.05893 51.577534,1451.05847 C54.468574,1451.05821 56.487514,1448.92446 56.487058,1445.86946 C56.486716,1442.86322 54.421378,1440.68142 51.57628,1440.68171 Z M77.640556,1441.32321 L71.8292561,1441.32396 C71.7318886,1441.32398 71.6352804,1441.32399 71.5396211,1441.324 L68.403364,1441.32441 C67.658716,1441.3245 67.055086,1441.93269 67.0552,1442.68276 L67.055998,1449.24573 C67.056112,1449.9689 67.638196,1450.55512 68.356168,1450.55512 L69.1010159,1450.55502 C69.1590163,1450.55501 69.2198786,1450.555 69.283412,1450.55499 L76.3026111,1450.55401 C76.3760656,1450.554 76.4472306,1450.55399 76.5159154,1450.55398 L77.641582,1450.55382 C78.386344,1450.55375 78.98986,1449.94557 78.98986,1449.19547 L78.9890156,1443.16383 C78.9890085,1443.11356 78.989002,1443.06665 78.9889959,1443.02337 L78.988948,1442.6813 C78.988948,1441.93113 78.38509,1441.32311 77.640556,1441.32321 Z" id="Combined-shape-8851"></path>
            </g>
        </g>
    </g>
</svg>